<?xml version="1.0" encoding="UTF-8" standalone="no"?>
<!-- Created with Inkscape (http://www.inkscape.org/) -->

<svg
   width="24.383188mm"
   height="24.477163mm"
   viewBox="0 0 24.383188 24.477163"
   version="1.1"
   id="svg1"
   sodipodi:docname="logo_small.svg"
   xml:space="preserve"
   inkscape:version="1.3.2 (091e20e, 2023-11-25, custom)"
   xmlns:inkscape="http://www.inkscape.org/namespaces/inkscape"
   xmlns:sodipodi="http://sodipodi.sourceforge.net/DTD/sodipodi-0.dtd"
   xmlns:xlink="http://www.w3.org/1999/xlink"
   xmlns="http://www.w3.org/2000/svg"
   xmlns:svg="http://www.w3.org/2000/svg"><sodipodi:namedview
     id="namedview1"
     pagecolor="#ffffff"
     bordercolor="#000000"
     borderopacity="0.25"
     inkscape:showpageshadow="2"
     inkscape:pageopacity="0.0"
     inkscape:pagecheckerboard="0"
     inkscape:deskcolor="#d1d1d1"
     inkscape:document-units="mm"
     inkscape:zoom="1.9872967"
     inkscape:cx="-25.411404"
     inkscape:cy="83.027359"
     inkscape:window-width="1440"
     inkscape:window-height="830"
     inkscape:window-x="-6"
     inkscape:window-y="-6"
     inkscape:window-maximized="1"
     inkscape:current-layer="layer1"
     showgrid="false" /><defs
     id="defs1"><linearGradient
       id="linearGradient11"
       inkscape:collect="always"><stop
         style="stop-color:#855cd6;stop-opacity:1;"
         offset="0"
         id="stop4" /><stop
         style="stop-color:#4a2391;stop-opacity:1;"
         offset="1"
         id="stop7" /></linearGradient><inkscape:path-effect
       effect="spiro"
       id="path-effect46"
       is_visible="true"
       lpeversion="1" /><linearGradient
       id="linearGradient40"
       inkscape:collect="always"><stop
         style="stop-color:#faa419;stop-opacity:1;"
         offset="0"
         id="stop40" /><stop
         style="stop-color:#fcc45d;stop-opacity:1;"
         offset="1"
         id="stop41" /></linearGradient><linearGradient
       id="linearGradient38"
       inkscape:collect="always"><stop
         style="stop-color:#faa51d;stop-opacity:1;"
         offset="0"
         id="stop37" /><stop
         style="stop-color:#ac6b04;stop-opacity:1;"
         offset="1"
         id="stop38" /></linearGradient><linearGradient
       id="linearGradient9"
       inkscape:collect="always"><stop
         style="stop-color:#855cd6;stop-opacity:1;"
         offset="0"
         id="stop9" /><stop
         style="stop-color:#4c2c8e;stop-opacity:1;"
         offset="1"
         id="stop10" /></linearGradient><linearGradient
       inkscape:collect="always"
       xlink:href="#linearGradient9"
       id="linearGradient13"
       gradientUnits="userSpaceOnUse"
       gradientTransform="matrix(2,0,0,2,-68.259633,-38.841612)"
       x1="46.358597"
       y1="50.903996"
       x2="48.204689"
       y2="52.805389" /><linearGradient
       inkscape:collect="always"
       xlink:href="#linearGradient38"
       id="linearGradient32"
       gradientUnits="userSpaceOnUse"
       gradientTransform="matrix(-2,0,0,-2,130.49831,186.66573)"
       x1="46.358597"
       y1="50.903996"
       x2="48.204689"
       y2="52.805389" /><linearGradient
       inkscape:collect="always"
       xlink:href="#linearGradient40"
       id="linearGradient41"
       x1="30.506821"
       y1="75.512604"
       x2="28.773954"
       y2="74.043266"
       gradientUnits="userSpaceOnUse"
       gradientTransform="matrix(2,0,0,2,-31.119337,-73.91206)" /><linearGradient
       inkscape:collect="always"
       xlink:href="#linearGradient11"
       id="linearGradient4"
       gradientUnits="userSpaceOnUse"
       x1="29.646925"
       y1="74.950363"
       x2="27.241102"
       y2="72.957199"
       gradientTransform="matrix(-2,0,0,-2,93.240379,221.75359)" /></defs><g
     inkscape:label="Layer 1"
     inkscape:groupmode="layer"
     id="layer1"
     transform="translate(-19.028347,-61.689052)"><path
       style="fill:url(#linearGradient4);stroke:#734bc1;stroke-width:0;stroke-dasharray:none;stroke-opacity:1"
       d="m 35.200151,74.466546 -5.647224,0.0026 c 0.17292,-4.990644 2.515256,-5.996934 3.822494,-8.94579 l 2.888347,1.062092 c 0.563368,1.167524 0.446668,2.32787 0.334974,3.505692 -0.16306,1.719482 -0.814663,2.94234 -1.398591,4.375406 z"
       id="path40-3"
       sodipodi:nodetypes="ccccsc" /><path
       d="m 26.296576,66.895292 -0.964036,-5.20624 7.461318,6.323786"
       style="fill:url(#linearGradient13);stroke:#000000;stroke-width:0;stroke-dasharray:none"
       id="path1-6-3"
       sodipodi:nodetypes="ccc" /><path
       d="m 31.125453,68.14845 -5.994594,-1.285248 c 0,0 2.727927,-1.913344 4.380304,-1.938924 1.201286,-0.0186 3.437177,0.08676 3.437177,0.08676 m -0.11894,3.630324 -5.994594,-1.285248 c 0,0 2.727928,-1.913344 4.380305,-1.938924 1.201286,-0.0186 3.437177,0.08676 3.437177,0.08676"
       style="fill:#855cd6;fill-opacity:1;stroke:#000000;stroke-width:0;stroke-dasharray:none"
       id="path1-27-1"
       sodipodi:nodetypes="ccsc" /><ellipse
       style="fill:#855cd6;fill-opacity:1;stroke:#000000;stroke-width:0;stroke-dasharray:none"
       id="path11-4"
       cx="28.519361"
       cy="67.635864"
       rx="1.2451596"
       ry="0.95910949" /><path
       d="m 35.942098,80.928828 0.964036,5.20624 -7.461318,-6.323786"
       style="fill:url(#linearGradient32);stroke:#000000;stroke-width:0;stroke-dasharray:none"
       id="path1-6-3-0"
       sodipodi:nodetypes="ccc" /><path
       style="fill:#faa51d;fill-opacity:1;stroke:#000000;stroke-width:0;stroke-dasharray:none"
       d="m 25.902315,76.327016 2.566615,-0.68046 6.169843,-1.220958 c 0,0 1.723026,0.250428 3.173361,1.182792 1.450337,0.932366 2.140552,2.92662 2.140552,2.92662 l -2.335026,1.499542 -2.462621,-0.264016 -2.178555,0.864074 2.48809,-0.163 0.492778,0.386664 c 0,0 -1.819298,1.26726 -3.471674,1.288736 -1.201286,0.0156 -3.437178,-0.07284 -3.437178,-0.07284 l -3.191224,-0.818108 z"
       id="path1-3-5-3-8"
       sodipodi:nodetypes="ccczccccccsccc" /><path
       style="fill:#faa51d;fill-opacity:1;stroke:#000000;stroke-width:0;stroke-dasharray:none"
       d="m 25.995114,75.868374 c 1.823245,-1.057844 3.398981,-1.98247 6.001644,-2.16372 0.0465,-0.0032 0.242136,-0.04756 0.289252,-0.0503 0.259104,-0.015 0.6186,-0.05868 0.896708,-0.0614 0.500088,-0.0048 0.964948,0.028 1.527564,0.09358 0,0 0.612888,0.0845 1.207188,0.289048 0.616396,0.212156 1.425482,0.567034 2.163886,1.132466 1.450336,1.110594 2.140552,3.486066 2.140552,3.486066 0,0 -3.116513,2.602386 -3.905578,2.785636 -0.576314,-0.329144 -0.75513,-0.640154 -0.08976,-0.0182 0,0 -1.819298,1.509508 -3.471674,1.535088 -1.201286,0.0186 -2.797772,-0.08676 -2.797772,-0.08676 l -3.963436,2.829568 0.13872,-3.831564 c -0.09928,-0.20193 -0.274982,-0.55222 -0.274982,-0.55222 0,0 -0.07382,-3.574182 0.13768,-5.387238 z"
       id="path5-5-6"
       sodipodi:nodetypes="cssscsscscscccccc" /><path
       d="m 31.137866,79.681278 5.994595,1.285248 c 0,0 -2.727928,1.913344 -4.380304,1.938924 -1.201286,0.0186 -3.437178,-0.08676 -3.437178,-0.08676 m 0.11894,-3.630324 5.994594,1.285248 c 0,0 -2.727928,1.913344 -4.380304,1.938924 -1.201286,0.0186 -3.437178,-0.08676 -3.437178,-0.08676"
       style="fill:#faa51d;fill-opacity:1;stroke:#000000;stroke-width:0;stroke-dasharray:none"
       id="path1-27-1-7"
       sodipodi:nodetypes="ccsc" /><ellipse
       style="fill:#ffffff;fill-opacity:1;stroke:#000000;stroke-width:0;stroke-dasharray:none"
       id="path12-0-5"
       cx="-11.763611"
       cy="-85.663864"
       rx="1.3292921"
       ry="1.2115067"
       transform="rotate(165)" /><path
       style="fill:url(#linearGradient41);stroke:#000000;stroke-width:0;stroke-dasharray:none"
       d="m 26.920895,73.37498 5.61119,0.267486 c -0.244454,4.765132 -2.502409,5.77915 -3.78646,8.675704 l -2.888348,-1.062092 c -0.563368,-1.167524 -0.446668,-2.32787 -0.334974,-3.505692 0.16306,-1.719482 0.814664,-2.94234 1.398592,-4.375406 z"
       id="path40"
       sodipodi:nodetypes="ccccsc" /><path
       style="fill:#855cd6;fill-opacity:1;stroke:#000000;stroke-width:0;stroke-dasharray:none"
       d="m 32.63442,73.619878 -0.519822,0.07008 c 0,0 -0.922885,0.20845 -1.388835,0.294596 -0.909275,0.1681 -1.304136,0.280926 -2.158266,0.245382 -0.09638,-0.004 -0.24751,-0.0092 -0.386976,-0.02088 -0.300008,-0.02532 -0.632014,-0.06662 -0.854046,-0.0925 0,0 -1.71882,-0.289886 -3.169156,-1.40048 -1.450336,-1.110594 -2.140552,-3.486066 -2.140552,-3.486066 0,0 3.116514,-2.602386 3.905578,-2.785636 0.244842,-0.05686 0.582534,0.478836 0.582534,0.478836 l -0.492778,-0.46058 c 0,0 1.819298,-1.509508 3.471674,-1.535088 1.201286,-0.0186 2.797772,0.08676 2.797772,0.08676 l 3.963436,-2.829568 -0.17386,3.825364 0.410036,1.198648 c 0,0 0.017,0.10144 0.02458,0.15216 0.228613,1.527642 -2.491518,1.466528 -2.670946,3.0046 z"
       id="path5-5"
       sodipodi:nodetypes="ccsssscsccscccccscc" /><ellipse
       style="fill:#ffffff;fill-opacity:1;stroke:#000000;stroke-width:0;stroke-dasharray:none"
       id="path12-0"
       cx="10.094635"
       cy="73.231827"
       rx="1.3292921"
       ry="1.2115067"
       transform="rotate(-15)" /><path
       style="fill:#000000;fill-opacity:0;stroke:#855cd6;stroke-width:0.018;stroke-dasharray:none;stroke-opacity:1"
       d="m 26.680236,73.953028 c 0.432762,0.12074 1.140676,0.2784 1.994425,0.2784 1.353639,0 2.421267,-0.345046 2.421267,-0.345046 0,0 0.993817,-0.294464 2.421267,-0.294464 0.810618,0 1.515289,0.13166 1.945014,0.23793"
       id="path3"
       sodipodi:nodetypes="cscsc" /></g></svg>
