<svg version="1.1" xmlns="http://www.w3.org/2000/svg" xmlns:xlink="http://www.w3.org/1999/xlink" width="188.01628" height="141.75456" viewBox="0,0,188.01628,141.75456"><g transform="translate(-145.99186,-85.59423)"><g data-paper-data="{&quot;isPaintingLayer&quot;:true}" fill-rule="nonzero" stroke-linecap="butt" stroke-linejoin="miter" stroke-miterlimit="10" stroke-dasharray="" stroke-dashoffset="0" style="mix-blend-mode: normal"><path d="M280.38825,90.89233v50.80425c0,2.23611 -1.8093,4.04808 -4.04058,4.04808h-13.11692c-1.62016,0 -3.1734,0.64447 -4.31892,1.79167l-7.17269,7.1833c-0.75834,0.75947 -1.78602,1.18584 -2.85789,1.18584h-16.088c-1.07187,0 -2.09957,-0.4264 -2.85789,-1.18584l-7.17269,-7.1833c-1.1455,-1.1472 -2.69875,-1.79167 -4.31891,-1.79167h-67.16131c-2.23129,0 -4.04059,-1.81195 -4.04059,-4.04808v-50.80425c0,-2.2361 1.8093,-4.04809 4.04059,-4.04809h67.16132c1.07187,0 2.09957,0.4264 2.85789,1.18587l7.17269,7.18331c1.1455,1.14719 2.69876,1.79167 4.31892,1.79167h16.088c1.62016,0 3.1734,-0.64447 4.31892,-1.79167l7.17268,-7.18331c0.75835,-0.75947 1.78603,-1.18587 2.8579,-1.18587h13.11692c2.23129,0 4.04058,1.81195 4.04058,4.04809zM174.60457,96.79558c-5.52284,0 -12.52368,-0.23373 -12.52368,5.28911c0,1.16988 -3.83701,5.15304 -3.46784,6.19647c0.06876,0.31252 -0.69317,7.89006 -0.60353,8.25774c1.19692,4.90915 12.48299,15.23057 16.93155,15.23057c5.52284,0 20.93598,-6.49611 20.93598,-12.01895c0,-0.41608 0.62428,-2.90778 0.3281,-5.55938c-0.5366,-4.80396 -2.1745,-10.90073 -2.41238,-11.57306c-0.98684,-4.48525 -14.40646,-5.82249 -19.1882,-5.82249z" data-paper-data="{&quot;index&quot;:null}" fill="#2c5c84" stroke="#2c5c84" stroke-width="2.5"/><path d="M216.76926,157.03755c1.07187,0 2.09957,0.4264 2.85789,1.18587l7.17269,7.1833c1.1455,1.1472 2.69876,1.79167 4.31892,1.79167h16.088c1.62016,0 3.1734,-0.64447 4.31892,-1.79167l7.17269,-7.1833c0.75835,-0.75947 1.78602,-1.18587 2.85789,-1.18587h67.16129c2.23129,0 4.04059,1.81195 4.04059,4.04808v50.80425c0,2.23611 -1.8093,4.04809 -4.04059,4.04809h-67.16129c-1.62016,0 -3.1734,0.64447 -4.31892,1.79166l-7.17269,7.18331c-0.75834,0.75947 -1.78602,1.18586 -2.85789,1.18586h-16.088c-1.07187,0 -2.09958,-0.4264 -2.8579,-1.18586l-7.17269,-7.18331c-1.1455,-1.1472 -2.69876,-1.79166 -4.31892,-1.79166h-13.11692c-2.23129,0 -4.04058,-1.81201 -4.04058,-4.04809v-50.80425c0,-2.23611 1.8093,-4.04808 4.04058,-4.04808zM305.87085,201.65989c1.8962,0 5.48964,-3.35967 7.00043,-4.27633c4.49167,-0.98204 5.62919,-9.43308 5.62919,-14.21936c0,-5.52284 -9.93867,-17.88886 -15.46152,-17.88886c-0.98351,0 -11.8455,4.79438 -12.74331,5.05897c-0.06734,-0.00134 -4.18041,7.48229 -4.24808,7.48229c-5.82612,-1.01917 -2.31342,1.82271 -2.31342,8.58405c0,4.97304 5.82445,12.68144 9.78014,13.99406c1.44164,0.80587 10.58761,1.26518 12.35656,1.26518z" data-paper-data="{&quot;index&quot;:null}" fill="#e1ba3a" stroke="#e1ba3a" stroke-width="2.5"/><path d="M280.38825,91.22566v46.13759c0,2.23611 -1.8093,4.04808 -4.04058,4.04808h-13.11692c-1.62016,0 -3.1734,0.64447 -4.31892,1.79167l-7.17269,7.1833c-0.75834,0.75947 -1.78602,1.18584 -2.85789,1.18584h-16.088c-1.07187,0 -2.09957,-0.4264 -2.85789,-1.18584l-7.17269,-7.1833c-1.1455,-1.1472 -2.69875,-1.79167 -4.31891,-1.79167h-67.16131c-2.23129,0 -4.04059,-1.81195 -4.04059,-4.04808v-46.13758c0,-2.2361 1.8093,-4.04809 4.04059,-4.04809h67.16132c1.07187,0 2.09957,0.4264 2.85789,1.18587l7.17269,7.18331c1.1455,1.14719 2.69876,1.79167 4.31892,1.79167h16.088c1.62016,0 3.1734,-0.64447 4.31892,-1.79167l7.17268,-7.18331c0.75835,-0.75947 1.78603,-1.18587 2.8579,-1.18587h13.11692c2.23129,0 4.04058,1.81195 4.04058,4.04809zM173.42685,95.61786c-5.52284,0 -15.72036,12.38471 -15.72036,17.90756c0,0.98407 1.02629,10.44563 3.06856,11.26825c0.38565,0.15533 6.19165,4.01599 6.25029,4.18173c0.98684,4.48525 9.69557,2.96231 14.47731,2.96231c5.52284,0 12.86018,-5.65487 12.86018,-11.17772c0,-0.55657 1.50683,-4.49156 1.45933,-8.57685c-0.05234,-4.5019 -1.66761,-9.18629 -1.86115,-9.73332c-0.55695,-2.53133 -7.52152,-6.56872 -12.58433,-7.70033c-3.90795,-0.87349 -5.86676,0.86836 -7.94983,0.86836z" data-paper-data="{&quot;index&quot;:null}" fill="#3673a5" stroke="#3673a5" stroke-width="2.5"/><path d="M216.76926,157.07316c1.07187,0 2.09957,0.4264 2.85789,1.18587l7.17269,7.1833c1.1455,1.1472 2.69876,1.79167 4.31892,1.79167h16.088c1.62016,0 3.1734,-0.64447 4.31892,-1.79167l7.17269,-7.1833c0.75835,-0.75947 1.78602,-1.18587 2.85789,-1.18587h67.16129c2.23129,0 4.04059,1.81195 4.04059,4.04808v45.80425c0,2.23611 -1.8093,4.04809 -4.04059,4.04809h-67.16129c-1.62016,0 -3.1734,0.64447 -4.31892,1.79166c0,0 -4.52639,4.53309 -5.793,5.80157c-0.61813,0.61905 -1.37969,1.38174 -1.37969,1.38174c-0.75834,0.75947 -1.78602,1.18586 -2.85789,1.18586h-16.088c-1.07187,0 -2.09958,-0.4264 -2.8579,-1.18586l-7.17269,-7.18331c-1.1455,-1.1472 -2.69876,-1.79166 -4.31892,-1.79166h-13.11692c-2.23129,0 -4.04058,-1.81201 -4.04058,-4.04809v-45.80425c0,-2.23611 1.8093,-4.04808 4.04058,-4.04808zM292.11592,201.25535c1.8962,0 12.36711,2.50641 13.87789,1.58975c4.49167,-0.98204 14.52944,-13.8832 14.52944,-18.66949c0,-5.52284 -5.8931,-17.68658 -11.41595,-17.68658c-0.98351,0 -11.23867,-1.47625 -12.13647,-1.21166c-0.06734,-0.00134 -10.80935,0.20247 -10.80935,6.96381c0,4.97304 -8.53732,12.07461 -4.58163,13.38722c0.83999,0.46955 2.26156,5.69719 4.83358,9.97879c1.84224,3.06675 4.96423,5.64815 5.70248,5.64815z" data-paper-data="{&quot;index&quot;:null}" fill="#ffd342" stroke="#ffd342" stroke-width="2.5"/><path d="M158.48442,112.99903c0,-10.37253 8.40859,-18.78113 18.78113,-18.78113c10.37253,0 18.78113,8.4086 18.78113,18.78113c0,10.37253 -8.40859,18.78113 -18.78113,18.78113c-10.37253,0 -18.78113,-8.4086 -18.78113,-18.78113z" fill="none" stroke="#325471" stroke-width="5"/><path d="M161.00811,113.08317c0,-8.93228 7.24103,-16.17332 16.17331,-16.17332c8.93228,0 16.17332,7.24104 16.17332,16.17332c0,8.93228 -7.24104,16.17332 -16.17332,16.17332c-8.93228,0 -16.17331,-7.24104 -16.17331,-16.17332z" fill="none" stroke="#3673a5" stroke-width="2.5"/><path d="M282.3652,183.80362c0,-10.38458 8.41836,-18.80293 18.80294,-18.80293c10.38458,0 18.80294,8.41835 18.80294,18.80293c0,10.38458 -8.41836,18.80294 -18.80294,18.80294c-10.38458,0 -18.80294,-8.41836 -18.80294,-18.80294z" fill="none" stroke="#cab677" stroke-width="5"/><path d="M284.99482,183.77649c0,-8.93228 7.24104,-16.17332 16.17332,-16.17332c8.93228,0 16.17332,7.24104 16.17332,16.17332c0,8.93228 -7.24104,16.17332 -16.17332,16.17332c-8.93228,0 -16.17332,-7.24104 -16.17332,-16.17332z" fill="none" stroke="#ffd342" stroke-width="2.5"/></g></g></svg>