<?xml version="1.0" encoding="UTF-8" standalone="no"?>
<!-- Created with Inkscape (http://www.inkscape.org/) -->

<svg
   width="31.633791mm"
   height="31.633791mm"
   viewBox="0 0 31.633791 31.633791"
   version="1.1"
   id="svg1"
   sodipodi:docname="scratchattach attempt2.svg"
   xml:space="preserve"
   inkscape:version="1.3.2 (091e20e, 2023-11-25, custom)"
   xmlns:inkscape="http://www.inkscape.org/namespaces/inkscape"
   xmlns:sodipodi="http://sodipodi.sourceforge.net/DTD/sodipodi-0.dtd"
   xmlns:xlink="http://www.w3.org/1999/xlink"
   xmlns="http://www.w3.org/2000/svg"
   xmlns:svg="http://www.w3.org/2000/svg"><sodipodi:namedview
     id="namedview1"
     pagecolor="#ffffff"
     bordercolor="#000000"
     borderopacity="0.25"
     inkscape:showpageshadow="2"
     inkscape:pageopacity="0.0"
     inkscape:pagecheckerboard="0"
     inkscape:deskcolor="#d1d1d1"
     inkscape:document-units="mm"
     inkscape:zoom="2.7796759"
     inkscape:cx="89.758665"
     inkscape:cy="73.749604"
     inkscape:window-width="1440"
     inkscape:window-height="830"
     inkscape:window-x="-6"
     inkscape:window-y="-6"
     inkscape:window-maximized="1"
     inkscape:current-layer="layer1" /><defs
     id="defs1"><linearGradient
       id="linearGradient19"
       inkscape:collect="always"><stop
         style="stop-color:#faa51d;stop-opacity:1;"
         offset="0"
         id="stop18" /><stop
         style="stop-color:#a96804;stop-opacity:1;"
         offset="1"
         id="stop19" /></linearGradient><linearGradient
       id="linearGradient17"
       inkscape:collect="always"><stop
         style="stop-color:#cd8105;stop-opacity:1;"
         offset="0"
         id="stop16" /><stop
         style="stop-color:#faa622;stop-opacity:1;"
         offset="1"
         id="stop17" /></linearGradient><linearGradient
       id="linearGradient9"
       inkscape:collect="always"><stop
         style="stop-color:#855cd6;stop-opacity:1;"
         offset="0"
         id="stop9" /><stop
         style="stop-color:#4c2c8e;stop-opacity:1;"
         offset="1"
         id="stop10" /></linearGradient><linearGradient
       id="linearGradient2"
       inkscape:collect="always"><stop
         style="stop-color:#4c2ba2;stop-opacity:1;"
         offset="0"
         id="stop2" /><stop
         style="stop-color:#855cd6;stop-opacity:1;"
         offset="1"
         id="stop3" /></linearGradient><linearGradient
       inkscape:collect="always"
       xlink:href="#linearGradient9"
       id="linearGradient13"
       gradientUnits="userSpaceOnUse"
       gradientTransform="matrix(1.3952019,0,0,1.3952019,-20.30085,-24.33877)"
       x1="46.358597"
       y1="50.903996"
       x2="48.204689"
       y2="52.805389" /><linearGradient
       inkscape:collect="always"
       xlink:href="#linearGradient2"
       id="linearGradient14"
       gradientUnits="userSpaceOnUse"
       x1="42.674332"
       y1="54.257664"
       x2="51.374336"
       y2="53.779591"
       gradientTransform="matrix(1.3952019,0,0,1.3952019,-20.939542,-24.139567)" /><linearGradient
       inkscape:collect="always"
       xlink:href="#linearGradient19"
       id="linearGradient15"
       gradientUnits="userSpaceOnUse"
       gradientTransform="matrix(-1.3952019,0,0,-1.3952019,114.84461,147.2868)"
       x1="46.358597"
       y1="50.903996"
       x2="48.204689"
       y2="52.805389" /><linearGradient
       inkscape:collect="always"
       xlink:href="#linearGradient17"
       id="linearGradient16"
       gradientUnits="userSpaceOnUse"
       gradientTransform="matrix(-1.3952019,0,0,-1.3952019,115.48331,147.0876)"
       x1="42.674332"
       y1="54.257664"
       x2="51.374336"
       y2="53.779591" /></defs><g
     inkscape:label="Layer 1"
     inkscape:groupmode="layer"
     id="layer1"
     transform="translate(-31.909775,-45.633415)"><rect
       style="fill:#000000;fill-opacity:0;stroke:#000000;stroke-width:0"
       id="rect1"
       width="31.633791"
       height="31.633791"
       x="31.909775"
       y="45.633415" /><path
       d="m 45.661652,49.423395 -0.672512,-3.631878 5.205022,4.41148"
       style="fill:url(#linearGradient13);stroke:#000000;stroke-width:0;stroke-dasharray:none"
       id="path1-6-3"
       sodipodi:nodetypes="ccc" /><path
       style="fill:url(#linearGradient14);fill-opacity:1;stroke:#000000;stroke-width:0;stroke-dasharray:none"
       d="m 52.600678,52.953573 2.237941,4.660779 -1.918235,3.752834 H 41.442177 l -1.980844,3.926278 1.621998,3.396308 c 0,0 -1.564242,0.521794 -1.71388,0.455465 -0.149638,-0.06633 0.247283,-0.858384 0.179158,-1.062689 -0.06813,-0.204305 -1.653908,-2.094579 -2.177312,-2.992793 l 0.239781,-5.351371 2.728108,-1.19787 2.570785,-1.11296 6.270491,-0.600083 -6.929035,0.954915 -4.638526,1.954825 3.057114,-2.690827 c 1.004908,-0.382032 5.929087,-1.515898 5.929087,-1.515898 l -0.216058,-1.06367 c 0,0 -1.201984,-0.208094 -2.21374,-0.982846 -1.011756,-0.774751 -1.493251,-2.431883 -1.493251,-2.431883 l 1.628916,-1.24605 1.717928,0.219385 1.519761,-0.718006 -1.735694,0.135447 -0.343762,-0.3213 c 0,0 1.269144,-1.053034 2.421843,-1.070879 0.838018,-0.01297 2.397778,0.06052 2.397778,0.06052 l 2.237939,0.665828 c 0.562778,1.389251 0.243114,2.777597 0.07992,4.176537 z"
       id="path1-3-5-3"
       sodipodi:nodetypes="cccccczzcccccccccczccccccscccc" /><path
       style="fill:#855cd6;fill-opacity:1;stroke:#000000;stroke-width:0;stroke-dasharray:none"
       d="m 52.600678,52.953573 2.237941,4.660779 -1.918235,3.752834 H 41.442177 l -1.980844,3.926278 1.621998,3.396308 c 0,0 -1.564242,0.521794 -1.71388,0.455465 -0.149638,-0.06633 0.247283,-0.858384 0.179158,-1.062689 -0.06813,-0.204305 -1.653908,-2.094579 -2.177312,-2.992793 l 0.239781,-5.351371 4.65374,-1.463475 9.227716,-0.717026 z"
       id="path2-1"
       sodipodi:nodetypes="cccccczzccccc" /><path
       style="fill:#855cd6;fill-opacity:1;stroke:#000000;stroke-width:0;stroke-dasharray:none"
       d="m 52.600678,52.953573 c -1.644331,0.954039 -3.345898,1.847978 -6.217634,1.513243 0,0 -1.201984,-0.208094 -2.21374,-0.982846 -1.011756,-0.774751 -1.493251,-2.431883 -1.493251,-2.431883 0,0 2.174083,-1.815427 2.724535,-1.943262 0.170802,-0.03967 0.406376,0.334036 0.406376,0.334036 l -0.343762,-0.321299 c 0,0 1.269144,-1.053035 2.421843,-1.070879 0.838018,-0.01298 1.951728,0.06052 1.951728,0.06052 l 2.764897,-1.97391 -0.08091,2.639738 c 0.562778,1.389251 0.243114,2.777597 0.07992,4.176537 z"
       id="path5-5"
       sodipodi:nodetypes="cczcsccsccccc" /><path
       d="m 49.030281,50.2976 -4.181835,-0.896591 c 0,0 1.903005,-1.33475 3.055705,-1.352595 0.838018,-0.01297 2.397778,0.06052 2.397778,0.06052"
       style="fill:#855cd6;fill-opacity:1;stroke:#000000;stroke-width:0;stroke-dasharray:none"
       id="path1-27-1"
       sodipodi:nodetypes="ccsc" /><ellipse
       style="fill:#855cd6;fill-opacity:1;stroke:#000000;stroke-width:0;stroke-dasharray:none"
       id="path11-4"
       cx="47.212269"
       cy="49.940022"
       rx="0.86862451"
       ry="0.66907567" /><ellipse
       style="fill:#ffffff;fill-opacity:1;stroke:#000000;stroke-width:0;stroke-dasharray:none"
       id="path12-0"
       cx="32.714745"
       cy="60.820015"
       rx="0.92731541"
       ry="0.84514827"
       transform="rotate(-15)" /><path
       d="m 48.882112,73.524639 0.672512,3.631878 -5.205022,-4.411479"
       style="fill:url(#linearGradient15);stroke:#000000;stroke-width:0;stroke-dasharray:none"
       id="path1-6-3-3"
       sodipodi:nodetypes="ccc" /><path
       style="fill:url(#linearGradient16);fill-opacity:1;stroke:#000000;stroke-width:0;stroke-dasharray:none"
       d="m 41.943086,69.994462 -2.237941,-4.66078 1.918235,-3.752833 h 11.478207 l 1.980844,-3.926279 -1.621998,-3.396307 c 0,0 1.564242,-0.521795 1.71388,-0.455466 0.149638,0.06633 -0.247283,0.858384 -0.179158,1.062689 0.06813,0.204305 1.653908,2.094579 2.177312,2.992794 l -0.239781,5.35137 -2.728108,1.197871 -2.570785,1.112959 -6.270491,0.600083 6.929035,-0.954915 4.638526,-1.954824 -3.057114,2.690827 c -1.004908,0.382031 -5.929087,1.515898 -5.929087,1.515898 l 0.216058,1.06367 c 0,0 1.201984,0.208094 2.21374,0.982845 1.011756,0.774752 1.493251,2.431883 1.493251,2.431883 l -1.628916,1.246051 -1.717928,-0.219386 -1.519761,0.718006 1.735694,-0.135446 0.343762,0.321299 c 0,0 -1.269144,1.053035 -2.421843,1.070879 -0.838018,0.01298 -2.397778,-0.06052 -2.397778,-0.06052 l -2.237939,-0.665828 c -0.562778,-1.389251 -0.243114,-2.777597 -0.07992,-4.176536 z"
       id="path1-3-5-3-7"
       sodipodi:nodetypes="cccccczzcccccccccczccccccscccc" /><path
       style="fill:#faa51d;fill-opacity:1;stroke:#000000;stroke-width:0;stroke-dasharray:none"
       d="m 41.943086,69.994462 -2.237941,-4.66078 1.918235,-3.752833 h 11.478207 l 1.980844,-3.926279 -1.621998,-3.396307 c 0,0 1.564242,-0.521795 1.71388,-0.455466 0.149638,0.06633 -0.247283,0.858384 -0.179158,1.062689 0.06813,0.204305 1.653908,2.094579 2.177312,2.992794 l -0.239781,5.35137 -4.65374,1.463475 -9.227716,0.717027 z"
       id="path2-1-4"
       sodipodi:nodetypes="cccccczzccccc" /><path
       style="fill:#faa51d;fill-opacity:1;stroke:#000000;stroke-width:0;stroke-dasharray:none"
       d="m 41.943086,69.994462 c 1.644331,-0.95404 3.345898,-1.847979 6.217634,-1.513243 0,0 1.201984,0.208094 2.21374,0.982845 1.011756,0.774752 1.493251,2.431883 1.493251,2.431883 0,0 -2.174083,1.815427 -2.724535,1.943263 C 48.972374,73.87887 48.7368,73.505173 48.7368,73.505173 l 0.343762,0.3213 c 0,0 -1.269144,1.053034 -2.421843,1.070879 -0.838018,0.01297 -1.951728,-0.06052 -1.951728,-0.06052 l -2.764897,1.973909 0.08091,-2.639737 c -0.562778,-1.389252 -0.243114,-2.777597 -0.07992,-4.176537 z"
       id="path5-5-6"
       sodipodi:nodetypes="cczcsccsccccc" /><path
       d="m 45.513483,72.650435 4.181835,0.89659 c 0,0 -1.903005,1.334751 -3.055705,1.352595 -0.838018,0.01298 -2.397778,-0.06052 -2.397778,-0.06052"
       style="fill:#faa51d;fill-opacity:1;stroke:#000000;stroke-width:0;stroke-dasharray:none"
       id="path1-27-1-1"
       sodipodi:nodetypes="ccsc" /><ellipse
       style="fill:#faa51d;fill-opacity:1;stroke:#000000;stroke-width:0;stroke-dasharray:none"
       id="path11-4-3"
       cx="-47.331493"
       cy="-73.008011"
       rx="0.86862451"
       ry="0.66907567"
       transform="scale(-1)" /><ellipse
       style="fill:#ffffff;fill-opacity:1;stroke:#000000;stroke-width:0;stroke-dasharray:none"
       id="path12-0-4"
       cx="-26.786224"
       cy="-82.408401"
       rx="0.92731541"
       ry="0.84514827"
       transform="rotate(165)" /></g></svg>
